<svg width="64" height="64" viewBox="0 0 64 64" fill="none" xmlns="http://www.w3.org/2000/svg">
  <path d="M32 8C40 8 48 16 52 24C54 28 54 32 52 36C48 44 40 48 32 52C28 54 24 54 20 52C16 50 12 46 10 42C8 38 8 34 10 30C12 26 16 22 20 20C24 18 28 16 32 16V8Z" fill="#10B981"/>
  <path d="M32 16C28 20 24 24 20 28C18 30 18 32 20 34C22 36 24 36 26 34C28 32 30 30 32 28V16Z" fill="#059669"/>
  <path d="M32 28C34 26 36 24 38 22C40 20 42 20 44 22C46 24 46 26 44 28C42 30 40 32 38 34C36 36 34 36 32 34V28Z" fill="#047857"/>
</svg>